<svg width="100" height="100" viewBox="0 0 100 100" fill="none" xmlns="http://www.w3.org/2000/svg">
<path d="M30.7292 69.9208L35.9375 63.4125L19.1708 50L35.9375 36.5875L30.7292 30.0792L9.89583 46.7458C9.40769 47.1362 9.01361 47.6313 8.7428 48.1947C8.47199 48.758 8.33138 49.375 8.33138 50C8.33138 50.625 8.47199 51.242 8.7428 51.8053C9.01361 52.3687 9.40769 52.8638 9.89583 53.2542L30.7292 69.9208ZM69.2708 30.0792L64.0625 36.5875L80.8292 50L64.0625 63.4125L69.2708 69.9208L90.1042 53.2542C90.5923 52.8638 90.9864 52.3687 91.2572 51.8053C91.528 51.242 91.6686 50.625 91.6686 50C91.6686 49.375 91.528 48.758 91.2572 48.1947C90.9864 47.6313 90.5923 47.1362 90.1042 46.7458L69.2708 30.0792ZM62.4 13.4L45.7333 88.4L37.5958 86.5917L54.2625 11.5917L62.4 13.4Z" fill="#BDFF00"/>
</svg>
