<svg width="90" height="72" viewBox="0 0 90 72" fill="none" xmlns="http://www.w3.org/2000/svg">
<g clip-path="url(#clip0_45_48)">
<path d="M0 31.5V69.75C0 70.9931 1.00688 71.9999 2.25 71.9999H13.5V27H4.5C2.01516 27 0 29.0151 0 31.5ZM50.625 24.75H47.25V19.125C47.25 18.5034 46.7466 18 46.125 18H43.875C43.2534 18 42.75 18.5034 42.75 19.125V28.125C42.75 28.7465 43.2534 29.25 43.875 29.25H50.625C51.2466 29.25 51.75 28.7465 51.75 28.125V25.875C51.75 25.2534 51.2466 24.75 50.625 24.75ZM69.9961 15.7556L47.4961 0.755107C46.7568 0.262683 45.8883 -6.10352e-05 45 -6.10352e-05C44.1117 -6.10352e-05 43.2432 0.262683 42.5039 0.755107L20.0039 15.7556C19.3876 16.1665 18.8823 16.7231 18.5327 17.3761C18.1831 18.0291 18.0002 18.7583 18 19.499V71.9999H36V51.75C36 50.5068 37.0069 49.5 38.25 49.5H51.75C52.9931 49.5 54 50.5068 54 51.75V71.9999H72V19.5004C72 17.9957 71.2477 16.5895 69.9961 15.7556ZM45 36C38.7872 36 33.75 30.9628 33.75 24.75C33.75 18.5371 38.7872 13.5 45 13.5C51.2128 13.5 56.25 18.5371 56.25 24.75C56.25 30.9628 51.2128 36 45 36ZM85.5 27H76.5V71.9999H87.75C88.9931 71.9999 90 70.9931 90 69.75V31.5C90 29.0151 87.9848 27 85.5 27Z" fill="#BDFF00"/>
</g>
<defs>
<clipPath id="clip0_45_48">
<rect width="90" height="72" fill="white"/>
</clipPath>
</defs>
</svg>
