<svg width="92" height="92" viewBox="0 0 92 92" fill="none" xmlns="http://www.w3.org/2000/svg">
<path d="M34.5 74.75C34.5 81.1038 28.06 86.25 20.125 86.25C12.19 86.25 5.75 81.1038 5.75 74.75C5.75 68.402 12.19 63.25 20.125 63.25C28.06 63.25 34.5 68.402 34.5 74.75ZM86.25 63.25C86.25 69.6038 79.81 74.75 71.875 74.75C63.94 74.75 57.5 69.6038 57.5 63.25C57.5 56.8962 63.94 51.75 71.875 51.75C79.81 51.75 86.25 56.8962 86.25 63.25Z" fill="#BDFF00"/>
<path fill-rule="evenodd" clip-rule="evenodd" d="M80.5 63.25V11.5H86.25V63.25H80.5ZM34.5 17.25V74.75H28.75V17.25H34.5Z" fill="#BDFF00"/>
<path d="M28.75 16.7038C28.75 15.2783 29.2794 13.9037 30.2357 12.8465C31.1919 11.7894 32.5067 11.1251 33.925 10.9825L79.925 6.38252C80.7246 6.30216 81.5321 6.39029 82.2955 6.64123C83.0589 6.89216 83.7613 7.30033 84.3572 7.83941C84.9532 8.37848 85.4296 9.03649 85.7556 9.77099C86.0816 10.5055 86.25 11.3002 86.25 12.1038V17.25L28.75 23V16.7038Z" fill="#BDFF00"/>
</svg>
